# xmcd CD database file generated by Grip 3.3.1
# 
# Track frame offsets:
#       150
#       23582
#       44850
#       67707
#       88630
#       108293
#       126515
#       147883
#       167674
#       193563
#       216561
# 
# Disc length: 3103 seconds
# 
# Revision: 71
# Processed by: cddbd v1.5.2PL0 Copyright (c) Steve Scherf et al.
# Submitted via: Grip 3.3.1
# 
DISCID=9d0c1d0b
DTITLE=Vicki Chew - The Bells of Saint Rose
DYEAR=2006
DGENRE=Folk
TTITLE0=You'll Remember Me
TTITLE1=Wax Paper Leaves
TTITLE2=Love Where Can You Be?
TTITLE3=Snow Waltz
TTITLE4=The Look In Your Eyes
TTITLE5=Fallen Soldiers
TTITLE6=Don't Tempt Me
TTITLE7=A Total Stranger
TTITLE8=The Bell of Saint Rose
TTITLE9=Beneath the Texas Sun
TTITLE10=Going Home
EXTD=ID3G: 13 YEAR: 2000
EXTT0=
EXTT1=
EXTT2=
EXTT3=
EXTT4=
EXTT5=
EXTT6=
EXTT7=
EXTT8=
EXTT9=
EXTT10=
PLAYORDER=
